<?xml version="1.0" encoding="UTF-8"?>
<svg xmlns="http://www.w3.org/2000/svg" viewBox="0 0 256 256" width="256" height="256">
  <defs>
    <linearGradient id="bg" x1="0%" y1="0%" x2="100%" y2="100%">
      <stop offset="0%" stop-color="#0f172a"/>
      <stop offset="100%" stop-color="#0B1120"/>
    </linearGradient>
  </defs>
  <rect x="4" y="4" width="248" height="248" rx="32" fill="url(#bg)" stroke="#2dd4bf" stroke-width="3"/>

  <!-- 电脑显示器 -->
  <rect x="73" y="138" width="110" height="70" rx="6" fill="#475569" stroke="#94a3b8" stroke-width="3"/>
  <rect x="81" y="146" width="94" height="54" rx="4" fill="#0f172a" stroke="#2dd4bf" stroke-width="2"/>
  <line x1="89" y1="156" x2="140" y2="156" stroke="#2dd4bf" stroke-width="2"/>
  <line x1="89" y1="168" x2="155" y2="168" stroke="#2dd4bf" stroke-width="2"/>
  <line x1="89" y1="180" x2="130" y2="180" stroke="#2dd4bf" stroke-width="2"/>
  <rect x="113" y="208" width="30" height="10" fill="#475569" stroke="#94a3b8" stroke-width="2"/>
  <rect x="88" y="221" width="80" height="6" rx="2" fill="#475569" stroke="#94a3b8" stroke-width="1"/>

  <!-- 牛手 -->
  <ellipse cx="93" cy="208" rx="10" ry="8" fill="#fbbf24" stroke="#d97706" stroke-width="2"/>
  <ellipse cx="163" cy="208" rx="10" ry="8" fill="#fbbf24" stroke="#d97706" stroke-width="2"/>

  <!-- 牛头 -->
  <ellipse cx="128" cy="98" rx="72" ry="58" fill="#fbbf24" stroke="#ffffff" stroke-width="4"/>
  <ellipse cx="128" cy="73" rx="66" ry="26" fill="#f59e0b"/>

  <!-- 大角 -->
  <!-- 三角锥大角 -->
  <polygon points="73,73 98,58 48,28" fill="#f59e0b" stroke="#d97706" stroke-width="3"/>
  <polygon points="183,73 158,58 208,28" fill="#f59e0b" stroke="#d97706" stroke-width="3"/>

  <!-- 耳朵 -->
  <polygon points="73,63 56,38 88,53" fill="#fbbf24" stroke="#d97706" stroke-width="2"/>
  <polygon points="183,63 200,38 168,53" fill="#fbbf24" stroke="#d97706" stroke-width="2"/>

  <!-- 黑眼圈 -->
  <ellipse cx="94" cy="93" rx="18" ry="12" fill="#b45309" fill-opacity="0.6"/>
  <ellipse cx="162" cy="93" rx="18" ry="12" fill="#b45309" fill-opacity="0.6"/>

  <!-- 眼镜 -->
  <circle cx="94" cy="90" r="24" stroke="#f1f5f9" stroke-width="4" fill="none"/>
  <circle cx="162" cy="90" r="24" stroke="#f1f5f9" stroke-width="4" fill="none"/>
  <line x1="118" y1="90" x2="138" y2="90" stroke="#f1f5f9" stroke-width="4"/>
  <line x1="70" y1="90" x2="56" y2="87" stroke="#f1f5f9" stroke-width="2"/>
  <line x1="186" y1="90" x2="200" y2="87" stroke="#f1f5f9" stroke-width="2"/>

  <!-- 半闭疲惫眼 -->
  <path d="M88 90 Q94 84 100 90" stroke="#0B1120" stroke-width="4" fill="none" stroke-linecap="round"/>
  <path d="M156 90 Q162 84 168 90" stroke="#0B1120" stroke-width="4" fill="none" stroke-linecap="round"/>

  <!-- 鼻孔 -->
  <ellipse cx="114" cy="116" rx="6" ry="6" fill="#d97706"/>
  <ellipse cx="142" cy="116" rx="6" ry="6" fill="#d97706"/>

  <!-- 疲惫下弯嘴 -->
  <path d="M110 133 Q128 125 146 133" stroke="#78350f" stroke-width="3" fill="none" stroke-linecap="round"/>
</svg>